<svg xmlns="http://www.w3.org/2000/svg" viewBox="-18279,-26465 34534,61566"><path fill="#6f998f" d="M -10480,-26464 l 46,-1 5,0 122,6 1586,31 25,3 1611,9 1289,3 258,2 350,7 192,12 141,9 260,0 421,3 300,1 287,0 1002,7 919,23 666,15 284,7 417,9 10,0 307,1 378,5 395,4 296,2 662,8 882,12 550,7 340,4 1355,21 15,0 542,-19 265,-9 370,-11 1020,-5 780,-5 889,-12 859,-13 22,0 147,-2 496,0 424,-6 574,-6 901,-9 678,-6 37,156 25,181 5,81 -41,227 0,243 -10,192 -10,121 -26,20 -15,15 5,30 -20,46 -16,40 -5,51 5,30 0,30 -10,10 -10,0 -10,-15 -5,-20 -6,-5 -10,5 -5,45 -10,101 -21,86 1,86 -26,60 -5,51 -5,35 10,41 5,50 0,46 -20,35 5,30 0,10 -31,0 15,96 5,126 6,20 25,81 21,71 20,136 31,131 56,162 5,40 56,0 11,25 30,61 26,106 25,45 -35,0 87,172 87,116 66,55 128,227 36,51 72,146 40,56 6,25 35,50 41,36 10,5 16,20 10,45 51,71 103,116 87,80 51,51 25,30 21,25 10,31 36,20 31,40 20,41 5,35 10,10 0,71 26,156 26,20 -6,35 11,41 10,25 10,45 26,91 25,101 11,30 35,51 11,30 15,30 10,36 -10,100 10,51 26,20 15,20 5,10 21,15 0,51 20,30 16,25 20,21 31,5 25,10 11,15 -11,20 -35,20 -26,-5 -5,15 15,51 31,65 15,26 5,20 0,40 11,25 15,15 -5,41 10,15 5,30 0,40 21,66 20,45 10,10 16,-5 10,11 -15,15 -21,20 -5,25 5,20 5,25 16,5 20,16 10,10 16,15 20,40 10,15 93,10 10,5 0,11 -10,5 -67,0 -15,10 -16,20 5,15 -10,30 -10,31 -5,45 5,91 15,10 16,15 51,0 0,50 -5,56 0,20 -21,10 -20,15 25,91 26,81 31,70 36,66 51,91 46,65 25,40 16,31 10,35 21,35 15,5 5,5 5,10 -10,11 -21,20 5,25 11,25 5,15 0,31 5,10 15,10 21,5 15,10 -10,10 -21,0 -15,5 -10,10 0,10 5,15 10,5 10,-5 31,-10 10,15 6,10 40,51 6,15 5,15 5,5 15,20 0,20 41,51 21,5 20,5 15,0 11,-5 30,5 11,10 5,20 -11,15 1,20 10,11 15,0 15,15 21,15 20,15 11,15 15,121 5,25 5,41 16,131 15,52 5,215 21,1583 10,893 10,695 31,1225 10,348 22,1120 9,478 25,1209 10,344 0,25 31,1576 24,1088 1,36 10,473 41,1607 8,659 1,131 8,721 8,1561 8,1371 1,216 35,1581 25,1182 6,226 4,157 39,1575 24,1072 3,114 9,415 20,941 10,421 4,233 18,735 -15,9 -22,-10 -20,-13 -17,-11 -10,-5 -8,0 -6,2 -20,11 -7,5 -5,7 -8,15 -5,19 -9,21 -15,25 -15,16 -25,11 -15,5 -20,4 -6,0 -43,-3 -19,-2 -51,-5 -36,7 -30,16 -15,7 -5,4 -20,20 -22,27 -21,30 -20,35 -13,25 -8,15 -36,56 -36,70 -20,30 -15,15 -25,11 -28,9 -7,3 -18,8 -10,10 0,20 10,15 9,4 10,3 26,-1 26,-6 35,-6 21,5 21,14 9,19 1,6 6,22 -5,25 -15,26 -21,25 -15,25 -15,30 0,25 5,15 5,31 20,30 13,17 7,26 -4,22 -10,34 -1,27 0,35 9,13 10,15 5,10 6,10 16,33 36,60 6,12 7,9 11,3 20,-4 9,-5 13,-11 16,-24 12,-22 24,-24 8,-3 38,-2 16,10 16,20 1,21 0,10 -10,10 -4,9 -8,11 -12,16 -5,20 -4,19 10,31 2,36 13,95 1,38 1,27 -1,24 -2,27 -4,30 -8,29 -7,16 -15,17 -9,10 -20,15 -15,26 -9,26 -9,27 -10,19 -21,21 -21,9 -29,12 -20,6 -8,7 -9,16 -16,20 -10,20 -6,9 -3,5 -11,11 -14,9 -27,1 -27,-5 -15,-4 -15,5 -10,15 -10,27 1,30 1,11 0,20 -4,25 -7,11 -3,4 -23,17 -22,5 -56,27 -35,26 -20,26 -5,10 1,15 12,12 21,5 26,5 16,7 9,2 31,21 10,10 0,15 -10,10 -15,6 -16,0 -25,-9 -15,-3 -6,-2 -8,-1 -13,0 -9,-3 -11,1 -14,0 -7,2 -20,14 -15,15 -14,21 -10,16 -12,40 -11,29 -15,21 -5,25 -5,35 0,9 2,8 11,15 24,7 7,1 51,15 16,14 11,15 5,22 1,13 5,12 15,10 11,7 5,2 17,8 7,2 6,6 11,5 5,15 0,10 -2,6 -8,5 -17,6 -21,1 -26,0 -24,-3 -27,-4 -19,4 -20,5 -11,10 -5,26 1,26 15,28 20,17 16,3 17,5 29,1 19,3 14,-1 75,-2 63,-2 14,0 15,2 16,0 7,2 15,9 10,13 2,22 -10,26 -20,20 -15,16 -9,20 -4,12 -3,11 1,30 8,18 9,23 3,5 30,20 41,15 36,-5 37,0 10,2 25,9 31,19 35,36 30,28 21,25 22,32 5,6 15,19 31,45 25,25 10,20 6,30 -5,26 -6,15 -5,15 -15,25 -10,25 -16,36 0,20 6,21 10,18 20,26 51,85 10,41 0,30 -9,32 -3,7 -14,31 -19,41 -21,55 -13,26 1,25 12,15 5,5 15,10 26,9 26,14 7,7 9,13 0,10 -4,15 -15,15 -16,2 -26,-5 -21,-4 -15,-1 -6,3 -10,6 -1,11 3,11 5,11 18,8 24,15 36,15 78,32 67,18 74,28 57,19 10,6 12,8 30,25 21,24 10,22 11,25 21,20 12,17 6,4 17,14 35,30 16,20 9,12 2,13 -10,20 -14,20 -17,16 -7,10 -6,11 -9,20 -5,26 0,10 6,15 16,19 17,40 1,35 0,13 -3,28 -10,30 -21,25 -9,9 -9,8 -18,28 -11,20 -5,20 1,28 4,20 7,7 20,11 20,6 22,9 10,15 1,12 0,13 -5,0 -7,5 -42,10 -24,10 -17,13 -10,8 -26,24 -5,15 -4,15 -10,6 -11,0 -16,-5 -15,-5 -15,-9 -11,6 -10,10 -4,30 3,13 6,15 18,21 6,6 26,24 21,19 1,21 1,13 -21,17 -15,6 -22,9 -15,10 -7,10 -3,6 -5,19 0,16 2,5 3,10 8,12 2,18 -10,15 -11,10 -7,7 -17,2 -16,5 -10,5 -4,11 -2,5 0,10 10,20 16,21 18,10 21,7 73,17 5,1 47,30 20,20 5,10 8,23 5,20 3,18 4,20 0,7 1,20 5,33 15,30 5,7 5,8 14,32 6,29 -8,18 -16,19 -13,21 -6,35 3,11 5,11 19,22 22,39 21,35 43,54 71,87 8,10 33,41 11,17 7,17 11,31 5,34 1,21 -6,12 -9,13 -15,10 -7,3 -21,12 -25,10 -21,10 -14,6 -11,5 -8,7 -4,6 -4,18 10,14 11,7 5,1 11,2 14,0 11,-2 15,-3 26,-5 25,5 16,15 1,30 -2,13 -2,12 -10,30 -7,28 -2,7 -9,31 1,26 0,20 11,20 16,14 11,15 6,25 -10,25 -15,16 -14,21 -19,31 -18,33 -11,20 -10,26 -15,23 -15,20 -15,30 -14,27 -10,20 -6,26 -2,10 -4,29 -1,6 -5,35 -2,12 -3,23 -11,61 -24,62 -32,43 -36,36 -41,40 -62,25 -82,29 -5,1 -65,17 -71,12 -56,17 -66,27 -28,12 -22,11 -31,20 -45,37 -7,12 -14,32 -16,35 -5,30 -10,40 -10,28 -14,21 -20,16 -18,10 -25,6 -17,16 -4,4 -16,20 -3,14 -1,6 0,20 5,25 10,26 0,45 -2,6 -13,25 -10,22 -10,20 1,25 0,20 1,20 -5,21 -9,20 -9,21 -10,35 -4,35 3,14 5,13 17,22 34,13 8,4 13,6 16,8 4,3 15,24 6,30 -3,13 -5,19 -13,10 -23,0 -31,-4 -21,-3 -28,-9 -19,-12 -4,-4 -23,-20 -15,-5 -14,0 -6,2 -11,12 -6,6 -5,16 -2,12 -2,22 0,16 4,27 1,28 0,20 -11,31 -9,19 -18,14 -20,16 -10,5 -4,4 -6,7 -9,13 -6,12 0,10 -5,20 -5,26 0,35 -8,22 -3,7 -25,33 -26,16 -20,10 -30,26 -25,26 -5,6 -7,20 0,8 3,12 22,34 31,46 21,46 20,37 11,18 15,27 15,18 21,15 20,26 11,13 7,11 6,25 7,30 -5,25 -10,25 -15,21 -22,10 -25,11 -10,1 -19,1 -14,-2 -14,-5 -20,-10 -19,-17 -11,-6 -5,-2 -9,-1 -18,0 -10,10 -13,22 -15,31 -13,33 -26,40 -17,28 -7,11 -35,32 -19,11 -41,26 -47,26 -19,11 -61,27 -36,4 -38,3 -29,2 -45,4 -27,2 -4,0 -31,1 -29,5 -17,3 -30,20 -27,26 -27,31 -3,4 -21,31 -15,32 -9,40 -2,8 0,10 5,35 4,8 10,9 11,7 6,1 8,3 17,3 36,4 25,0 26,5 8,2 13,6 8,8 12,14 9,11 3,6 4,16 0,13 -5,20 -21,25 -20,20 -26,24 -10,25 -6,37 -2,13 0,11 -3,33 -1,13 -3,50 -2,44 -1,27 -4,30 -4,15 0,5 -6,15 -14,31 -37,55 -46,68 -30,46 -32,47 -31,45 -13,22 -2,5 -15,33 -9,18 -10,16 -23,26 -30,26 -9,7 -17,13 -36,15 -61,23 -92,33 -35,27 -22,23 -26,35 -21,29 -14,31 -20,26 -6,8 -16,27 -10,15 -7,17 -14,28 -16,33 -5,38 -10,40 -15,86 -3,63 1,17 0,24 6,40 1,57 0,40 -4,29 -2,11 -10,45 -18,45 -25,41 -38,72 -30,26 -26,11 -22,1 -26,-5 -7,-4 -13,-11 -21,-25 -26,-35 -5,-10 -6,-18 -17,-45 9,-57 6,-25 7,-29 2,-19 0,-28 -11,-50 -9,-12 -11,-14 -22,-16 -20,-4 -31,10 -19,26 -15,30 -19,51 -18,39 -26,50 -20,51 -21,30 -17,16 -10,9 -15,16 -24,26 -10,10 -10,20 -22,48 -20,36 -20,13 -11,6 -31,6 -8,-5 -13,-9 -15,-22 -4,-14 -4,-19 5,-35 19,-36 16,-36 3,-5 4,-7 15,-29 15,-25 9,-26 -6,-30 -10,-14 -10,-8 -22,-17 -31,-9 -36,-4 -20,1 -14,2 -26,15 -36,20 -25,25 -19,24 -11,19 -12,38 -6,18 -9,32 -8,16 -8,10 -15,14 -24,15 -20,21 -10,30 4,14 4,11 5,9 4,6 26,24 16,21 5,25 0,20 -15,21 -12,15 -6,4 -23,15 -21,11 -14,9 -11,28 -5,18 -1,30 0,20 -2,15 -5,13 -20,26 -6,4 -8,3 -21,0 -22,-21 -11,-13 -10,-11 -22,-31 -47,-75 -25,-36 -8,-11 -21,-9 -16,-4 -9,9 -10,11 -3,12 -2,7 17,36 11,25 20,35 4,15 3,19 8,45 -5,37 -9,49 1,15 -5,26 -2,11 -1,53 0,17 -3,55 4,27 4,24 8,31 14,48 30,67 3,7 63,98 30,36 4,4 52,39 34,17 13,5 36,5 21,0 36,15 33,33 13,33 5,25 13,34 2,6 5,35 4,15 3,6 10,5 21,-5 19,-21 20,-30 7,-9 4,-6 11,-11 13,-11 11,-3 11,0 16,9 14,21 6,20 15,35 0,26 -16,25 -15,15 -15,20 -6,20 -6,11 -9,14 -19,24 -26,20 -22,17 -21,19 -35,45 -5,11 -15,28 -22,32 -28,30 -14,5 -19,0 -31,-10 -30,-10 -26,-5 -29,10 -51,15 -9,9 -24,27 -10,33 -5,39 -3,45 -9,36 -11,19 -4,6 -20,16 -25,11 -31,10 -5,2 -31,0 -20,1 -11,0 -40,1 -22,2 -35,10 -36,25 -21,14 -31,36 -10,21 -5,38 6,35 6,14 8,13 10,20 9,13 5,3 17,10 16,5 20,-5 36,-16 10,-5 29,-14 25,-14 126,-69 72,-43 29,-15 21,-11 22,-5 18,4 16,14 0,26 2,25 9,14 5,9 11,24 6,14 7,23 2,12 0,17 -3,37 -1,10 -11,38 -19,37 -22,34 -41,35 -31,26 -56,31 -85,58 -31,18 -23,13 -72,30 -36,10 -25,11 -31,-1 -36,-5 -77,-10 -57,5 -20,7 -20,11 -30,21 -20,31 -10,18 -8,17 0,31 20,28 27,26 26,14 36,4 35,-2 35,-5 47,-5 13,0 19,2 13,6 7,5 17,23 1,31 -4,8 -9,14 -26,22 -21,15 -21,30 -4,4 -26,41 -16,35 -10,36 6,35 2,15 7,25 15,30 55,94 7,12 24,58 6,16 6,22 10,45 -5,35 -3,22 -4,21 -13,23 -22,23 -25,17 -25,14 -20,11 -27,10 -19,12 -20,17 -8,12 -2,7 -2,15 0,12 -1,41 11,50 10,50 15,51 6,35 0,30 -14,22 -22,23 -23,13 -23,7 -31,5 -22,0 -19,-10 -26,-20 -21,-15 -35,-30 -21,-11 -20,1 -25,11 -20,15 -15,21 -16,34 -2,27 11,25 3,6 27,27 21,15 26,4 22,5 36,-1 24,-1 17,0 49,7 6,1 120,12 52,8 31,10 21,29 22,44 8,29 2,14 2,19 1,18 -4,28 -15,28 -8,9 -12,9 -21,8 -5,2 -20,-5 -29,-13 -17,-12 -16,-9 -11,-4 -26,-5 -12,1 -7,1 -29,9 -18,6 -5,1 -35,6 -31,-1 -31,0 -42,-6 -30,-5 -51,-35 -30,-21 -25,-21 -37,-29 -27,-15 -25,-9 -17,0 -8,2 -20,10 -10,21 -4,11 -2,16 0,35 14,33 16,38 21,30 9,13 11,17 26,40 20,40 26,41 16,35 28,48 22,43 37,59 59,45 52,29 79,38 72,28 22,12 23,15 25,29 10,32 1,29 0,6 -11,45 -9,12 -3,5 -9,6 -14,7 -29,16 -4,2 -41,11 -36,6 -50,-5 -25,-6 -18,-6 -57,-28 -57,-24 -22,-9 -41,-17 -31,-6 -30,6 -25,16 -10,20 -4,31 1,32 1,11 14,45 2,6 22,55 21,41 7,13 47,32 46,20 41,5 41,-10 31,-15 26,-21 9,-4 21,-11 40,-12 7,-2 41,-1 13,3 16,5 21,15 9,13 7,15 11,35 3,20 7,35 -26,45 -7,35 -6,42 -8,58 -4,27 -17,119 -48,88 -7,14 -99,181 -98,90 -167,97 -17,10 -86,50 -73,50 -127,89 -117,141 -140,227 -43,85 -10,31 -9,30 -11,61 -1,30 0,88 31,115 6,25 94,250 10,28 40,160 34,139 30,50 62,81 32,23 151,133 17,20 25,40 21,35 25,36 26,30 5,4 82,66 31,25 30,26 46,113 5,13 5,91 3,66 -21,116 -28,72 -34,57 -69,73 -151,52 -77,3 -116,4 -40,3 -38,6 -29,5 -72,13 -38,7 -15,4 -77,21 -29,7 -221,59 -51,14 -36,5 -81,9 -294,20 -12,1 -162,11 -296,83 -28,11 -61,31 -30,17 -136,97 -106,107 -52,69 -87,116 -86,39 -27,6 -31,-3 -46,-6 -15,-10 -63,-46 -54,-42 -105,-82 -59,-22 -17,-5 -46,5 -26,10 -20,5 -36,15 -62,32 -141,57 -116,102 -23,19 -78,104 -47,93 -11,151 -9,117 -10,38 -34,133 -4,17 -112,286 -63,139 -36,80 -13,39 -27,96 -14,78 -3,29 5,45 10,66 9,20 52,76 52,49 93,87 111,192 43,73 39,27 6,4 51,40 17,19 80,104 77,150 65,181 88,243 4,106 -25,132 -99,236 -3,7 -80,155 -33,56 -21,35 -98,134 -77,72 -72,45 -56,22 -31,9 -27,4 -182,12 -26,-3 -93,-12 -92,-24 -26,-8 -46,-22 -45,-23 -110,-92 -12,-9 -310,-262 -10,-7 -98,-78 -42,-25 -49,-26 -115,-45 -148,-40 -184,-76 -67,-45 -139,-44 -50,-7 -33,-4 -42,2 -137,4 -60,-23 -11,-6 -231,-195 -5,-4 -313,-230 -250,-109 -201,-85 -143,-56 -252,-116 -118,-50 -39,-16 -63,-24 -108,-31 -59,-13 -227,-25 -246,15 -160,56 -16,6 -240,171 -403,402 -69,105 -107,213 -113,225 -14,21 -28,35 -154,168 -13,14 -254,276 -3,5 -31,55 -20,35 -57,101 -16,60 -8,31 -15,109 5,115 2,11 8,26 87,186 140,156 84,65 100,74 -73,28 -95,39 -61,32 -47,24 -63,17 -70,3 -37,-6 -41,-22 -39,-41 -21,-62 -11,-75 0,-86 -10,-81 -11,-60 0,-6 -9,-30 -17,-40 -3,-6 -17,-23 -38,-39 -22,-12 -44,-30 -33,-16 -62,-35 -56,-40 -51,-61 -40,-113 -37,-98 -31,-41 -498,-10 -25,20 -7,39 3,61 17,33 32,39 30,26 40,32 55,27 35,20 56,30 36,9 25,16 35,26 37,40 37,43 19,41 9,56 2,46 -10,44 -11,31 -22,33 -45,48 -41,45 -31,30 -37,14 -45,-4 -31,-5 -25,-10 -36,-40 -29,-32 -38,-39 -36,-45 -35,-36 -40,-36 -60,-43 -81,-42 -66,-35 -55,-35 -86,-33 -85,-53 -61,-40 -56,-45 -34,-25 -38,-41 -15,-52 10,-54 16,-65 26,-60 28,-60 8,-40 5,-41 1,-49 -1,-47 -10,-40 -12,-33 -33,-48 -39,-57 -24,-38 -36,-46 -28,-34 -30,-37 -25,-21 -35,-18 -45,-35 -37,-36 -48,-47 -39,-62 -34,-56 -38,-77 -24,-66 -37,-80 -41,-70 -48,-70 -28,-67 -36,-65 -16,-70 -25,-86 -31,-100 -20,-76 0,-40 5,-35 17,-50 17,-40 17,-44 16,-42 5,-51 -6,-48 -14,-27 -25,-16 -6,-4 -56,4 -16,1 -51,2 -42,8 -45,-1 -52,-10 -36,-15 -44,-45 -49,-67 -24,-41 -31,-53 -21,-51 -5,-50 0,-50 19,-64 18,-62 15,-70 15,-58 12,-50 50,-58 31,-41 31,-30 32,-37 45,-43 35,-30 27,-14 9,0 37,-19 61,-8 83,-12 82,-12 73,-19 42,-23 42,-34 22,-45 26,-95 16,-61 10,-70 9,-64 7,-62 -5,-70 -5,-51 -24,-85 -22,-106 -32,-112 -23,-91 -48,-109 -28,-55 -38,-51 -46,-50 -82,-66 -51,-60 -52,-50 -33,-60 -36,-69 -47,-59 -42,-79 -21,-66 -22,-69 -24,-72 -38,-81 -28,-60 -49,-94 -42,-117 -17,-106 -19,-56 4,-80 1,-6 4,-69 8,-41 12,-35 17,-19 26,-14 4,-2 41,-5 77,16 56,1 46,-4 37,-3 31,-14 31,-35 10,-36 0,-45 -15,-50 -24,-51 -39,-62 -54,-72 -73,-67 -51,-63 -31,-48 -10,-20 -15,-20 -17,-20 -20,-31 -4,-30 1,-25 6,-30 1,-40 -3,-66 2,-40 -4,-55 7,-51 6,-40 5,-35 10,-30 0,-40 -4,-40 -16,-36 -43,-47 -39,-33 -62,-35 -4,-2 -73,-24 -85,-25 -110,-26 -87,-25 -87,-20 -72,-31 -41,-25 -4,-3 -32,-27 -31,-30 -10,-25 -15,-46 -30,-46 -24,-41 -33,-29 -37,-23 -50,-27 -62,-15 -66,-11 -72,-15 -40,-2 -37,-9 -4,-1 -40,-23 -40,-27 -24,-28 -15,-41 10,-40 18,-47 28,-60 23,-59 6,-50 2,-51 -15,-45 -36,-60 -41,-61 -44,-50 -17,-12 -18,-14 -85,-45 -56,-30 -82,-50 -69,-55 -85,-86 -58,-80 -44,-72 -46,-50 -47,-40 -37,-25 -35,-16 -45,-30 -66,-34 -57,-21 -60,-3 -33,-3 -39,-5 -25,-16 -25,-26 -29,-33 -20,-34 -36,-57 -3,-4 -20,-26 -33,-35 -31,-31 -67,-45 -107,-81 -36,-29 -41,-26 -31,-1 -5,0 -30,5 -27,13 -42,34 -35,29 -49,34 -43,49 -42,49 -43,48 -48,44 -68,42 -51,20 -87,15 -68,-5 -92,-23 -80,-22 -52,-36 -54,-54 -49,-87 -43,-77 -15,-32 -104,-192 -9,-109 109,-69 20,-76 120,6 117,-71 76,-82 0,-67 -89,7 -45,-128 -126,47 -249,57 -109,-14 -36,-23 -52,-46 -51,-38 -67,-70 -41,-51 -26,-50 -35,-41 -46,-45 -26,-25 -42,-50 -35,-35 -46,-41 -59,-24 -94,-36 -83,-26 -102,-53 -92,-63 -62,-55 -41,-71 -27,-60 -14,-46 -14,-55 -21,-50 -36,-51 -46,-24 -56,-27 -62,-19 -116,-27 -61,-22 -81,-38 -65,-32 -87,-48 -109,-80 -7,-5 -78,-63 -80,-63 -59,-52 -80,-93 -79,-114 -4,-5 -9,-17 -49,-88 -63,-120 -34,-67 -31,-65 -30,-50 -41,-54 -41,-42 -57,-40 -57,-29 -51,-22 -56,-20 -35,-20 -45,-20 -32,-26 -62,-65 -36,-51 -34,-44 -34,-47 -34,-55 -39,-68 -22,-63 -35,-75 -32,-102 -18,-76 -17,-69 -16,-70 -15,-81 -15,-75 -26,-101 0,-111 6,-146 -1,-64 1,-51 5,-71 0,-50 11,-55 13,-49 23,-60 22,-55 28,-54 17,-50 17,-60 12,-55 2,-55 26,-55 25,-60 36,-61 29,-47 38,-48 47,-50 64,-58 64,-83 41,-45 44,-33 43,-37 57,-66 36,-75 42,-83 28,-74 29,-100 20,-135 10,-71 10,-80 16,-81 15,-55 16,-65 31,-81 33,-107 15,-48 3,-12 21,-54 25,-64 2,-6 52,-94 27,-59 28,-48 41,-71 53,-77 29,-38 33,-47 39,-44 67,-53 113,-92 57,-60 54,-82 38,-89 31,-61 21,-65 16,-49 13,-65 2,-62 5,-91 -14,-89 -9,-72 -2,-15 -15,-65 -26,-81 -35,-77 -31,-54 -41,-50 -32,-35 -29,-41 -24,-41 -29,-67 -4,-51 -2,-60 7,-65 23,-60 27,-49 22,-29 26,-30 36,-31 26,-20 36,-30 25,-20 30,-30 33,-39 16,-35 17,-39 17,-40 31,-43 23,-30 3,-5 8,-9 23,-26 29,-29 32,-29 42,-23 58,-39 75,-41 93,-85 41,-45 4,-7 22,-40 3,-6 23,-50 12,-55 23,-69 17,-75 9,-55 5,-51 -8,-50 -19,-51 -19,-41 -35,-29 -46,-24 -88,-57 -87,-60 -102,-71 -59,-35 -50,-32 -45,-24 -51,-24 -40,-21 -42,-20 -59,-34 -40,-42 -45,-42 -51,-44 -61,-55 -62,-51 -106,-60 -50,-32 -44,-19 -56,-30 -46,-15 -72,-14 -67,-7 -5,0 -46,-5 -61,-5 -98,0 -60,-12 -62,-24 -73,-25 -53,-35 -59,-41 -71,-49 -109,-62 -67,-49 -81,-42 -70,-39 -77,-22 -65,-23 -70,-17 -94,-8 -71,-8 -51,-10 -41,-10 -46,-4 -22,-4 -24,-3 -15,3 -47,10 -46,13 -46,25 -39,28 -32,49 -29,49 -3,4 -17,31 -14,55 -10,50 -5,40 -16,51 -41,73 -54,74 -28,54 -52,60 -23,29 -36,24 -54,27 -41,45 -53,54 -43,49 -48,48 -41,40 -38,28 -58,38 -53,19 -61,13 -57,8 -46,-11 -56,-25 -50,-19 -68,-32 -88,-59 -61,-42 -59,-38 -38,-38 -36,-55 -14,-30 -14,-41 -23,-25 -18,-26 -33,-29 -31,-31 -34,-30 -17,-25 -28,-27 -18,-34 -25,-48 -9,-45 -12,-53 -15,-50 -19,-60 -23,-66 -34,-67 2,-40 -8,-49 7,-82 2,-70 2,-59 -10,-56 -26,-68 -30,-37 -16,-26 -28,-30 -33,-35 -21,-42 -4,-35 1,-41 -3,-50 -19,-49 -36,-90 -15,-36 -20,-35 -21,-30 -28,-37 -15,-35 7,-40 16,-30 21,-44 30,-61 26,-45 16,-35 15,-25 34,-32 28,-33 31,-41 25,-40 19,-49 17,-46 0,-51 -2,-28 -8,-42 -25,-50 -24,-56 -29,-56 -29,-47 -31,-48 -35,-66 -16,-45 -13,-65 -13,-61 -3,-71 -3,-65 7,-70 -9,-54 -11,-52 -15,-45 -21,-51 -10,-45 0,-55 2,-53 7,-56 -9,-47 -10,-46 -15,-45 -5,-50 -5,-25 -2,-15 -8,-56 -16,-65 -4,-41 -14,-51 -29,-56 -19,-41 -25,-21 -35,-31 -55,-37 -33,-25 -17,-13 -29,-22 -50,-60 -53,-71 -17,-26 -24,-35 -48,-65 -69,-82 -51,-75 -31,-35 -12,-14 -55,-43 -30,-24 -31,-20 -34,-19 -48,-42 -51,-55 -36,-40 -41,-41 -42,-45 -4,-5 -31,-25 -35,-34 -50,-45 -24,-23 -39,-25 -37,-13 -4,-1 -42,-15 -40,-22 -60,-42 -48,-38 -51,-46 -64,-52 -52,-27 -55,-43 -80,-65 -46,-45 -31,-35 -22,-27 -19,-36 -5,-13 -9,-27 -15,-31 -27,-23 -38,-25 -45,-11 -60,-24 -31,-15 -36,-21 -45,-22 -37,-18 -25,-15 -36,-11 -44,-16 -38,-19 -52,-34 -46,-41 -55,-28 -74,-68 -101,-87 -63,-70 -54,-67 -52,-54 -25,-41 -21,-40 -15,-45 -8,-41 -3,-55 -9,-51 -15,-40 -33,-52 -39,-59 -49,-75 -48,-92 -46,-130 -15,-40 -44,-50 -50,-42 -60,-33 -71,-2 -129,-15 -5,0 -87,-16 -55,-29 -50,-52 -38,-50 -39,-78 -18,-71 -9,-27 -5,-24 0,-52 -5,-40 -6,-50 -13,-50 -19,-41 -19,-36 -11,-9 -15,-13 -70,-52 -55,-32 -53,-25 -46,-20 -42,-20 -45,-26 -54,-42 -47,-33 -44,-42 -45,-49 -29,-44 -27,-42 -27,-45 -24,-41 -36,-45 -31,-36 -33,-52 -33,-49 -33,-46 -80,-60 -61,-45 -48,-27 -37,-27 -28,-32 -20,-35 -10,-11 -30,-30 -67,-55 -72,-56 -56,-52 -31,-29 -49,-39 -44,-52 -50,-50 -46,-66 -37,-40 -10,-47 -12,-49 -4,-46 -3,-44 10,-51 15,-40 15,-35 4,-26 2,-14 0,-81 4,-35 7,-40 17,-49 9,-47 0,-55 -10,-51 -18,-45 -28,-56 -40,-47 -79,-93 -60,-62 -57,-40 -48,-35 -74,-56 -70,-37 -46,-29 -35,-31 -39,-62 -30,-73 -32,-75 -28,-82 -8,-51 -9,-50 8,-71 7,-55 12,-55 33,-64 39,-46 3,-4 38,-38 27,-34 29,-29 26,-36 26,-45 5,-35 0,-40 -10,-51 -20,-50 -34,-61 -82,-102 -11,-12 -59,-83 -34,-75 -26,-66 -35,-70 -44,-61 -29,-72 -22,-96 -23,-76 -28,-76 -68,-104 -51,-85 -17,-33 -9,-23 -4,-38 1,-45 9,-37 5,-56 7,-47 1,-46 -3,-55 -11,-47 -24,-72 -29,-120 -17,-117 -11,-101 -29,-105 -14,-123 -13,-86 3,-65 1,-46 -3,-60 6,-38 13,-52 8,-49 0,-52 -8,-45 -12,-59 -5,-53 5,-43 19,-47 6,-50 17,-35 12,-34 3,-30 -1,-31 1,-30 -4,-35 1,-36 1,-30 7,-55 7,-45 6,-45 2,-51 2,-50 -1,-36 16,-44 26,-30 31,-39 11,-14 22,-50 22,-40 6,-30 1,-30 -9,-35 -12,-29 -1,-42 17,-49 17,-46 2,-5 22,-54 21,-71 16,-55 19,-39 17,-31 21,-38 27,-55 17,-44 19,-80 11,-45 18,-60 26,-66 35,-68 37,-52 22,-37 35,-54 36,-35 41,-45 46,-35 60,-50 59,-45 52,-18 39,-12 72,-10 87,-15 71,-11 17,-11 36,-22 48,-34 32,-38 18,-55 3,-60 -13,-66 -21,-50 -44,-90 -28,-66 -12,-66 8,-71 0,-55 21,-60 20,-75 21,-56 35,-87 25,-95 14,-80 8,-55 -1,-86 -13,-56 -36,-112 -25,-53 -26,-41 -35,-46 -47,-45 -37,-35 -50,-25 -41,-9 -29,-26 -39,-37 -24,-47 1,-48 9,-57 27,-59 31,-55 31,-29 66,-56 72,-56 72,-65 72,-57 51,-58 51,-38 57,-48 55,-43 53,-27 87,-35 134,-55 180,-70 84,-31 105,-39 87,-29 72,-15 63,-8 57,-8 57,-2 56,2 29,4 22,3 59,15 58,6 45,-1 61,0 43,-8 19,-11 55,-31 83,-50 67,-40 51,-40 94,-48 45,-27 46,-35 36,-29 38,-38 33,-44 42,-90 16,-64 9,-80 6,-63 6,-80 -9,-54 -12,-67 -2,-74 7,-40 11,-53 15,-52 11,-48 18,-37 18,-34 31,-45 21,-40 25,-43 17,-44 18,-65 13,-55 14,-45 6,-90 -5,-71 -21,-102 -15,-59 4,-47 18,-55 25,-54 45,-34 34,-40 21,-33 18,-24 36,-35 37,-23 30,-27 45,-40 33,-44 38,-64 38,-78 25,-60 62,-71 67,-81 55,-52 48,-63 77,-93 26,-28 25,-20 26,-15 34,-12 38,-13 36,-20 36,-27 5,-4 41,-24 36,-20 37,-32 25,-31 30,-78 26,-91 22,-89 15,-56 10,-36 5,-35 0,-35 -10,-41 -16,-35 -5,-50 -5,-41 6,-40 15,-30 9,-24 17,-42 15,-60 16,-81 10,-60 8,-67 8,-75 5,-101 5,-110 4,-86 -7,-76 -17,-81 -2,-61 -3,-46 1,-40 5,-38 5,-62 6,-64 0,-50 -9,-43 -16,-43 -31,-60 -41,-61 -50,-79 -27,-67 -35,-61 -51,-101 -46,-91 -29,-57 -27,-44 -50,-55 -57,-31 -46,-15 -20,4 -31,6 -46,16 -4,0 -42,4 -52,-1 -65,-14 -50,-23 -33,-18 -31,-41 -14,-40 -8,-35 -9,-26 -14,-40 -31,-30 -31,-21 -30,-15 -37,-18 -4,-2 -36,-36 -41,-60 -15,-51 -9,-36 -7,-66 -20,-49 -20,-50 -30,-55 -41,-51 -46,-61 -21,-30 -15,-41 0,-50 11,-45 19,-34 32,-44 31,-48 26,-71 10,-35 21,-65 20,-46 31,-50 46,-70 24,-40 56,-88 22,-44 12,-40 5,-65 15,-61 -5,-60 3,-21 1,-15 -2,-40 9,-111 16,-95 15,-81 28,-73 28,-59 32,-49 29,-39 17,-32 5,-50 4,-49 3,-60 2,-45 12,-40 12,-45 23,-39 27,-29 42,-24 40,-16 57,-15 110,-20 54,-15 56,-15 41,-15 41,-12 46,-3 52,2 45,12 40,17 62,25 54,21 59,10 104,17 31,1 36,-8 73,-27 42,-13 78,-30 89,-39 54,-36 56,-34 59,-38 42,-34 49,-29 4,-3 47,-24 56,-13 83,-5 4,0 78,3 51,-3 62,3 66,8 72,5 4,0 67,5 5,0 25,5 77,15 66,9 77,8 61,8 62,-3 4,-1 57,1 67,-9 51,-7 47,-9 61,-5 73,-9 72,-17 50,-14 49,-21 63,-14 5,0 67,5 46,1 36,-19 36,-22 49,-44 54,-54 53,-48 90,-70 67,-50 34,-23 17,-27 18,-37 11,-45 7,-44 16,-25 43,-44 44,-27 41,-20 41,-13 51,-7 42,-9 53,-28 47,-28 68,-32 46,-3 12,0 34,2 46,8 46,16 41,15 72,20 79,14 117,15 80,2 62,-10 49,-14 53,-31 52,-35 49,-48 38,-48 41,-55 46,-53 31,-38 46,-35 34,-23 33,-57 36,-56 41,-44 61,-41 93,-45 86,-20 67,-10 63,-19 52,-23 49,-23 46,-39 41,-37 19,-34 7,-57 -1,-71 -6,-106 -1,-96 -8,-147 7,-84 -5,-55 17,-56 19,-50 11,-65 5,-61 8,-35 7,-30 19,-49 33,-49 59,-53 43,-41 11,-45 8,-58 0,-96 -17,-76 -6,-78 0,-65 14,-44 27,-47 45,-65 65,-83 59,-63 36,-31 36,-30 62,-40 14,-6 47,-24 98,-50 85,-53 43,-26 27,-19 4,-3 18,-14 69,-54 4,-4 47,-28 48,-25 62,-17 69,-19 5,-1 52,-18 46,-30 28,-34 23,-52 7,-58 -7,-78 -10,-38 -7,-27 14,-85 4,-42 10,-50 17,-28 14,-23 20,-41 11,-44 15,-61 16,-96 21,-90 41,-98 41,-79 12,-28 15,-36 21,-45 3,-7 17,-58 -1,-68 -10,-60 -23,-74 -21,-63 -28,-55 -23,-68 -7,-68 5,-66 31,-45 49,-70 28,-44 26,-52 5,-41 6,-47 6,-40 18,-40 22,-34 20,-40 14,-39 2,-47 -9,-29 -27,-42 -25,-65 -28,-48 -18,-58 -15,-39 -8,-21 -44,-72 -30,-101 -10,-65 -1,-9 -7,-86 -2,-82 3,-19 13,-87 14,-108 15,-96 2,-78 -8,-23 2,-50 -2,-14 -7,-34 -28,-45 -29,-26 -40,-17 -41,3 -67,-16 -4,-2 -42,-9 -34,-20 -32,-40 -4,-67 -8,-51 -13,-44 -21,-50 -27,-35 -39,-31 -55,-22 -86,-46 -85,-53 -4,-3 -61,-23 -25,-8 -72,-23 -62,-15 -82,-35 -81,-47 -94,-70 -75,-40 -80,-47 -12,-8 -58,-31 -34,-16 -61,-20 -61,-15 -76,-25 -52,-26 -52,-39 -66,-57 -9,-10 -43,-45 -60,-87 -65,-90 -48,-73 -35,-44 -41,-90 -33,-78 -15,-35 -20,-77 -13,-59 -5,-38 -3,-20 2,-37 1,-21 18,-63 23,-59 26,-54 21,-45 10,-51 6,-65 0,-35 -5,-31 -8,-25 -20,-21 -18,-5 -7,-2 -9,-3 -31,-23 -43,-63 -48,-76 -38,-69 -38,-57 -72,-81 -81,-106 -51,-71 -18,-17 -13,-13 -36,-25 -42,-14 -34,-22 -64,-64 -59,-53 -61,-35 -4,-2 -73,-38 -92,-41 -81,-44 -8,-7 -51,-41 -15,-11 -39,-49 -15,-51 -5,-60 -18,-45 -30,-32 -49,-32 -71,-28 -55,-23 -78,-33 -15,-10 -63,-25 -80,-44 -109,-70 -90,-74 -67,-70 -39,-62 0,-35 -1,-41 8,-75 12,-50 40,-64 z"/></svg>